# xmcd CD database file
#
# Track frame offsets:
#	225
#	11967
#	24982
#	45442
#	63605
#	81285
#	98925
#	111432
#	129127
#	154840
#	170387
#	181872
#	194640
#	216507
#	240277
#	266200
#	287972
#
# Disc length: 3998 seconds
#
# Revision: 0
# Processed by: cddbd v1.4PL0 Copyright (c) Steve Scherf et al.
# Submitted via: CDex 1.50Beta5
#
DISCID=f60f9b11
DTITLE=Duke Ellington - The Complete Capitol Recordings of Duke Ellington [CD5]
DYEAR=1900
DGENRE=Jazz
TTITLE0=Twelfth Street Rag
TTITLE1=Spetember song
TTITLE2=Caravan
TTITLE3=La Virges De La Macarena
TTITLE4=Harlem Air Shaft (Alt)
TTITLE5=Harlem Air Shaft
TTITLE6=Look What I've Got For You
TTITLE7=Commericial Time
TTITLE8=Clarinet Melodrama
TTITLE9=Theme for Trambean
TTITLE10=Coquette
TTITLE11=Serious Serenade
TTITLE12=Body and Soul
TTITLE13=Discontended Blues
TTITLE14=One In A Blue Mood
TTITLE15=Lady Be Good
TTITLE16=So Long
EXTD=
EXTT0=
EXTT1=
EXTT2=
EXTT3=
EXTT4=
EXTT5=
EXTT6=
EXTT7=
EXTT8=
EXTT9=
EXTT10=
EXTT11=
EXTT12=
EXTT13=
EXTT14=
EXTT15=
EXTT16=
PLAYORDER=
